<?xml version="1.0" encoding="utf-8"?>
<!-- Generator: Adobe Illustrator 22.0.0, SVG Export Plug-In . SVG Version: 6.00 Build 0)  -->
<svg version="1.2" baseProfile="tiny" id="Layer_1" xmlns="http://www.w3.org/2000/svg" xmlns:xlink="http://www.w3.org/1999/xlink"
	 x="0px" y="0px" viewBox="0 0 38.2 38.3" xml:space="preserve">
<g>
	<path fill="#FFFFFF" d="M14.5,6V4.8H18V6c0,0.7,0.5,1.2,1.2,1.2h0.3c0.7,0,1.2-0.5,1.2-1.2V4.8h3.5V6c0,0.7,0.5,1.2,1.2,1.2h0.3
		c0.7,0,1.2-0.5,1.2-1.2V4.8h0.7L29.9,7v3.6h2.4V6l-3.7-3.6h-1.7V1.2c0-0.7-0.5-1.2-1.2-1.2h-0.3c-0.7,0-1.2,0.5-1.2,1.2v1.2h-3.5
		V1.2c0-0.7-0.5-1.2-1.2-1.2h-0.3C18.6,0,18,0.5,18,1.2v1.2h-3.5V1.2C14.5,0.5,14,0,13.3,0H13c-0.7,0-1.2,0.5-1.2,1.2v1.2H8.4V1.2
		C8.4,0.5,7.8,0,7.2,0H6.9C6.2,0,5.7,0.5,5.7,1.2v1.2H0v35.9h10.6l0.6-2.4H2.4V4.8h3.3V6c0,0.7,0.5,1.2,1.2,1.2h0.3
		c0.7,0,1.2-0.5,1.2-1.2V4.8h3.5V6c0,0.7,0.5,1.2,1.2,1.2h0.3C14,7.2,14.5,6.7,14.5,6z"/>
	<path fill="#FFFFFF" d="M37.5,18.2l-3.8-3.8c-0.9-0.9-2.4-0.9-3.3,0c0,0,0,0,0,0l0,0l-14,14l-0.3,0.3l-2.4,9.7l9.6-2.4l0.9-0.9l0,0
		l13.3-13.3h0c0,0,0,0,0,0C38.5,20.6,38.4,19.1,37.5,18.2z M17.1,29.5l5.3,5.3l-4.9,1.2l-1.5-1.6L17.1,29.5z M23.3,31.5l-3-3l10-10
		l3,3L23.3,31.5z"/>
</g>
<g>
</g>
<g>
</g>
<g>
</g>
<g>
</g>
<g>
</g>
<g>
</g>
<g>
</g>
<g>
</g>
<g>
</g>
<g>
</g>
<g>
</g>
</svg>
