<?xml version="1.0" encoding="utf-8"?>
<!-- Generator: Adobe Illustrator 22.0.0, SVG Export Plug-In . SVG Version: 6.00 Build 0)  -->
<svg version="1.2" baseProfile="tiny" id="Layer_1" xmlns="http://www.w3.org/2000/svg" xmlns:xlink="http://www.w3.org/1999/xlink"
	 x="0px" y="0px" viewBox="0 0 42.3 40.3" xml:space="preserve">
<g>
	<path fill="#FFFFFF" d="M42.3,7.8c0-4.3-3.6-7.9-7.9-7.8c-2.4,0-4.6,1.1-6,2.9l11.1,11C41.3,12.5,42.4,10.3,42.3,7.8z"/>
	<path fill="#FFFFFF" d="M2.8,14l11-11.2c-1.5-1.7-3.6-2.7-6-2.7C3.5,0.2,0,3.7,0,8.1C0,10.5,1.1,12.6,2.8,14z"/>
	<path fill="#FFFFFF" d="M23.6,12.8c0-0.8-0.7-1.5-1.5-1.5c-0.8,0-1.5,0.7-1.5,1.5v9.4l-5.5-2.7c-1-0.5-2.2-0.1-2.7,0.9
		c-0.5,1-0.1,2.2,0.9,2.7l7.5,3.7c0.3,0.1,0.6,0.2,0.9,0.2c0.8,0,1.5-0.4,1.8-1.1c0.3-0.6,0.3-1.2,0-1.8V12.8z"/>
	<path fill="#FFFFFF" d="M35.5,32.5c1.7-2.7,2.8-5.9,2.7-9.3c-0.1-9.3-7.7-16.9-17-16.9c0,0-0.1,0-0.1,0C11.8,6.3,4.2,14,4.3,23.4
		c0,3.6,1.2,6.9,3.1,9.6l-3.5,3.6c-0.5,0.5-0.5,1.2,0,1.7c0.2,0.2,0.5,0.3,0.8,0.3c0.3,0,0.6-0.1,0.8-0.3l3.3-3.4
		c3.1,3.3,7.5,5.4,12.4,5.4c0,0,0.1,0,0.1,0c5.1,0,9.6-2.3,12.7-5.9l3.6,3.6c0.2,0.2,0.5,0.3,0.8,0.3c0.3,0,0.6-0.1,0.8-0.3
		c0.5-0.5,0.5-1.2,0-1.7L35.5,32.5z M21.3,37.3L21.3,37.3c-7.8,0-14.1-6.3-14.1-14c0-3.8,1.4-7.3,4.1-10c2.6-2.7,6.2-4.2,9.9-4.2
		h0.1c0,0,0,0,0,0c7.7,0,14,6.3,14.1,14c0,3.8-1.4,7.3-4.1,10C28.6,35.8,25.1,37.3,21.3,37.3z"/>
</g>
<g>
</g>
<g>
</g>
<g>
</g>
<g>
</g>
<g>
</g>
<g>
</g>
<g>
</g>
<g>
</g>
<g>
</g>
<g>
</g>
<g>
</g>
</svg>
