<?xml version="1.0" encoding="utf-8"?>
<!-- Generator: Adobe Illustrator 22.0.0, SVG Export Plug-In . SVG Version: 6.00 Build 0)  -->
<svg version="1.2" baseProfile="tiny" id="Layer_1" xmlns="http://www.w3.org/2000/svg" xmlns:xlink="http://www.w3.org/1999/xlink"
	 x="0px" y="0px" viewBox="0 0 40 40" xml:space="preserve">
<path fill="#FFFFFF" d="M33.4,26.8L33.4,26.8c-0.1,0-0.2,0-0.4,0L20.6,14.4c-0.9-0.9-2.1-1.1-3.2-0.7l1.9-5.7c0.3-0.9,0-2.3-0.7-3
	l-4.1-4.1c-0.7-0.7-2.1-1-3-0.7L9,1C8.6,1.1,8.4,1.3,8.3,1.6C8.3,1.9,8.4,2.2,8.7,2.5l2.6,2.6c0.9,0.9,0.9,2.4,0,3.4l-2.8,2.8
	C8,11.7,7.4,12,6.8,12c-0.6,0-1.2-0.2-1.7-0.7L2.5,8.7C2.2,8.4,1.9,8.3,1.6,8.3C1.3,8.4,1.1,8.6,1,9l-0.8,2.4c-0.3,0.9,0,2.3,0.7,3
	l4.1,4.1c0.7,0.7,2.1,1,3,0.7l5.7-1.9c-0.4,1.1-0.1,2.4,0.7,3.2l12.5,12.5c0,0.1,0,0.2,0,0.4c0,3.6,3,6.6,6.6,6.6
	c3.6,0,6.6-3,6.6-6.6C40,29.8,37.1,26.8,33.4,26.8z M33.4,36.9c-1.9,0-3.5-1.6-3.5-3.5c0-0.9,0.4-1.8,1-2.4c0.7-0.7,1.5-1,2.4-1
	c1.9,0,3.5,1.6,3.5,3.5C36.9,35.3,35.3,36.9,33.4,36.9z"/>
<g>
</g>
<g>
</g>
<g>
</g>
<g>
</g>
<g>
</g>
<g>
</g>
<g>
</g>
<g>
</g>
<g>
</g>
<g>
</g>
<g>
</g>
</svg>
