<?xml version="1.0" encoding="utf-8"?>
<!-- Generator: Adobe Illustrator 22.0.0, SVG Export Plug-In . SVG Version: 6.00 Build 0)  -->
<svg version="1.2" baseProfile="tiny" id="Layer_1" xmlns="http://www.w3.org/2000/svg" xmlns:xlink="http://www.w3.org/1999/xlink"
	 x="0px" y="0px" viewBox="0 0 40.1 39.7" xml:space="preserve">
<g>
	<path fill="#FFFFFF" d="M10.2,17.8v21.8h29.9V17.8H10.2z M34.7,21l-9.5,6.9L15.6,21H34.7z M37.9,37.4H12.4V22.7l12.7,9.1l12.7-9.1
		V37.4z"/>
	<path fill="#FFFFFF" d="M4.2,19.3v-7.8c0-0.7,0.6-1.2,1.2-1.2h12.8c0.7,0,1.2,0.6,1.2,1.2v4h4.2v-4.4c0-3.4-2.8-6.2-6.2-6.2H7.7
		l0-2.8C7.7,1,6.8,0,5.6,0C4.4,0,3.4,1,3.4,2.2l0,3.5c-2,1-3.4,3.1-3.4,5.5v11.6c0,3.4,0.6,8.6,1.2,11.6c0.6,2.7,3.4,4.9,6.4,5.3
		V20.6H5.4C4.7,20.6,4.2,20,4.2,19.3z"/>
</g>
<g>
</g>
<g>
</g>
<g>
</g>
<g>
</g>
<g>
</g>
<g>
</g>
<g>
</g>
<g>
</g>
<g>
</g>
<g>
</g>
<g>
</g>
</svg>
