<svg width="15" height="10" viewBox="0 0 15 10" fill="none" xmlns="http://www.w3.org/2000/svg">
<path d="M14.8501 1.7354L14.0987 0.984002C13.9985 0.883661 13.8832 0.833649 13.7528 0.833649C13.6227 0.833649 13.5074 0.883661 13.4073 0.984002L7.50008 6.89089L1.59313 0.98416C1.49295 0.883819 1.37766 0.833807 1.24742 0.833807C1.11712 0.833807 1.00183 0.883819 0.901698 0.98416L0.150353 1.73561C0.0500125 1.83574 0 1.95103 0 2.08133C0 2.21152 0.0501704 2.32681 0.150353 2.42694L7.15436 9.43111C7.25449 9.53129 7.36984 9.58135 7.50008 9.58135C7.63032 9.58135 7.74546 9.53129 7.84553 9.43111L14.8501 2.42694C14.9503 2.32676 15 2.21147 15 2.08133C15 1.95103 14.9503 1.83574 14.8501 1.7354Z" fill="#FDEC4F"/>
</svg>
