<svg width="43" height="43" viewBox="0 0 43 43" fill="none" xmlns="http://www.w3.org/2000/svg">
<path d="M28.2188 22.8438H14.7813C14.0395 22.8438 13.4375 23.4458 13.4375 24.1875C13.4375 24.9293 14.0395 25.5313 14.7813 25.5313H28.2188C28.9605 25.5313 29.5625 24.9293 29.5625 24.1875C29.5625 23.4458 28.9605 22.8438 28.2188 22.8438ZM30.9063 14.7813H12.0938C11.352 14.7813 10.75 15.3833 10.75 16.125C10.75 16.8668 11.352 17.4688 12.0938 17.4688H30.9063C31.648 17.4688 32.25 16.8668 32.25 16.125C32.25 15.3833 31.648 14.7813 30.9063 14.7813ZM21.5 0C9.62666 0 0 8.42259 0 18.8125C0 24.7506 3.15109 30.0368 8.0625 33.4849V43L17.4808 37.285C18.7843 37.5001 20.1253 37.625 21.5 37.625C33.3747 37.625 43 29.2024 43 18.8125C43 8.42259 33.3747 0 21.5 0ZM21.5 34.9375C19.9305 34.9375 18.4148 34.7547 16.9581 34.4443L10.6317 38.2471L10.7163 32.0148C5.86683 29.0976 2.6875 24.2762 2.6875 18.8125C2.6875 9.9075 11.1101 2.6875 21.5 2.6875C31.8899 2.6875 40.3125 9.9075 40.3125 18.8125C40.3125 27.7175 31.8899 34.9375 21.5 34.9375Z" fill="white"/>
</svg>
