<svg xmlns="http://www.w3.org/2000/svg" viewBox="0 0 899.28 235.64"><defs><style>.cls-1{fill:#fe0;}</style></defs><path class="cls-1" d="M180.16,345.94h899.28V273.28H180.16Z" transform="translate(-180.16 -110.3)"/><path d="M260.21,112.57l-29.58,45.94H218.36V112.57h-38.2V235.08h38.2V187.22h11.75l29.76,47.86h46.55l-42.29-64.56,40-58H260.22m156.26,26h28.45v-26H416.48Zm-106.59,0h28.45v-26H309.89ZM391,186.09H362.88l10.27-32,3.74-12.7h.52l3.57,12.7Zm58.12,49L399.43,112.57H355.14L306.41,235.08h40.72l6.53-20.62h46L406,235.08h43m580.64-80.49c0,11.57-4.61,14.53-15.84,14.53h-16V141.19H1014c11.75,0,15.66,3.13,15.66,13.4Zm40-1.48c0-27.32-19.14-40.55-55.08-40.55H959.53V235.07h38.2V194.7h15.84l20.71,40.37h45.07L1048,187.39c13.75-4.87,21.58-18.45,21.58-34.28M683.18,115.35a111.21,111.21,0,0,0-33-5c-47.07,0-68,24.36-68,63.08,0,41.85,22.19,64,64.65,64a94.63,94.63,0,0,0,36.63-7.57l-4.09-28.11a74.89,74.89,0,0,1-27.5,5c-23.32,0-29.41-8-29.41-33.33,0-24,5.57-32,29.06-32a103.93,103.93,0,0,1,27.76,3.74l3.74-29.93M818,235.08V112.57H779.85v45.25H739.21V112.57H701V235.08h38.2v-46h40.64v46Zm61.26-30.19V186.27h49.86v-26.8H879.22V143.11h60.3l-.7-30.54H840.93V235.08H941.26l.7-30.19Zm-348.05-50.3c0,11.57-4.61,14.53-15.84,14.53h-16V141.19H515.5c11.75,0,15.66,3.13,15.66,13.4Zm40.11-1.48c0-27.32-19.14-40.55-55.08-40.55H461.12V235.07h38.2V194.7h15.84l20.71,40.37h45.07l-31.32-47.68c13.75-4.87,21.58-18.45,21.58-34.28" transform="translate(-180.16 -110.3)"/></svg>